<svg width="159" height="11" viewBox="0 0 159 11" fill="none" xmlns="http://www.w3.org/2000/svg">
<path d="M3.7959 8.47656C4.18522 8.47656 4.51107 8.36865 4.77344 8.15283C5.04004 7.93701 5.17334 7.67041 5.17334 7.35303C5.17334 7.09912 5.08659 6.8833 4.91309 6.70557C4.74382 6.52783 4.51953 6.36914 4.24023 6.22949C3.96094 6.08561 3.65837 5.94596 3.33252 5.81055C3.0109 5.67513 2.68717 5.52913 2.36133 5.37256C2.03971 5.21175 1.74349 5.02344 1.47266 4.80762C1.20182 4.5918 0.983887 4.33154 0.818848 4.02686C0.653809 3.72217 0.571289 3.35612 0.571289 2.92871C0.571289 2.39974 0.70459 1.93848 0.971191 1.54492C1.23779 1.14714 1.6123 0.838216 2.09473 0.618164C2.57715 0.398112 3.13786 0.288086 3.77686 0.288086C4.79671 0.288086 5.77425 0.541992 6.70947 1.0498L5.90967 2.6748C5.49495 2.41243 5.09928 2.2347 4.72266 2.1416C4.34603 2.0485 4.03288 2.00195 3.7832 2.00195C3.40658 2.00195 3.104 2.08236 2.87549 2.24316C2.6512 2.39974 2.53906 2.60921 2.53906 2.87158C2.53906 3.09587 2.61947 3.28841 2.78027 3.44922C2.94108 3.61003 3.15267 3.75391 3.41504 3.88086C3.68164 4.00781 3.97152 4.13688 4.28467 4.26807C4.61051 4.40348 4.94059 4.5516 5.2749 4.7124C5.60921 4.87321 5.91813 5.06576 6.20166 5.29004C6.48519 5.51432 6.71159 5.78516 6.88086 6.10254C7.05436 6.41992 7.14111 6.8029 7.14111 7.25146C7.14111 7.82275 6.99512 8.33057 6.70312 8.7749C6.41113 9.21501 6.00911 9.56201 5.49707 9.81592C4.98503 10.0656 4.39681 10.1904 3.73242 10.1904C3.11882 10.1904 2.50309 10.0825 1.88525 9.8667C1.26742 9.64665 0.702474 9.33773 0.19043 8.93994L1.10449 7.39111C1.34147 7.59847 1.61442 7.78467 1.92334 7.94971C2.23226 8.11475 2.54964 8.24382 2.87549 8.33691C3.20557 8.43001 3.51237 8.47656 3.7959 8.47656ZM10.5439 0.478516H12.4736L17.3613 6.87695V0.478516H19.3037V10H17.3423L12.4482 3.58887V10H10.5439V0.478516ZM22.9541 0.478516H28.6289V2.19238H24.7061V4.24902H28.375V5.96289H24.7061V8.28613H28.8193V10H22.9541V0.478516ZM31.5811 10L35.2944 0.478516H37.4717L41.1851 10H39.1094L38.3096 7.86719H34.4565L33.6567 10H31.5811ZM37.6748 6.15332C37.4209 5.40853 37.1945 4.74202 36.9956 4.15381C36.7967 3.56559 36.5936 2.95833 36.3862 2.33203C36.1789 2.95833 35.9736 3.56559 35.7705 4.15381C35.5716 4.74202 35.3452 5.40853 35.0913 6.15332H37.6748ZM45.959 10H44.0166V0.478516H45.959V4.7251C46.1071 4.49235 46.2616 4.25537 46.4224 4.01416C46.5832 3.76872 46.7651 3.50423 46.9683 3.2207L49.2788 0.478516H51.7671L48.3521 4.52832L52.2876 10H49.6851L46.9492 6.19775L45.959 7.37842V10ZM55.1191 0.478516H60.7939V2.19238H56.8711V4.24902H60.54V5.96289H56.8711V8.28613H60.9844V10H55.1191V0.478516ZM64.5713 0.478516H67.8086C68.9681 0.478516 69.8737 0.743001 70.5254 1.27197C71.1771 1.79671 71.5029 2.50765 71.5029 3.40479C71.5029 4.04378 71.3315 4.59603 70.9888 5.06152C70.6502 5.52279 70.1699 5.86344 69.5479 6.0835L71.8076 10H69.6304L67.5229 6.3501H66.5137V10H64.5713V0.478516ZM67.5801 4.73779C68.2191 4.73779 68.7036 4.6193 69.0337 4.38232C69.368 4.14535 69.5352 3.82161 69.5352 3.41113C69.5352 3.00065 69.368 2.67904 69.0337 2.44629C68.7036 2.21354 68.2191 2.09717 67.5801 2.09717H66.5137V4.73779H67.5801ZM87.7983 8.7876C87.3582 9.22347 86.8356 9.56624 86.2305 9.81592C85.6253 10.0656 84.9652 10.1904 84.25 10.1904C83.5348 10.1904 82.8747 10.0677 82.2695 9.82227C81.6686 9.57682 81.146 9.23193 80.7017 8.7876C80.2573 8.34326 79.9124 7.82064 79.667 7.21973C79.4215 6.61458 79.2988 5.95443 79.2988 5.23926C79.2988 4.52409 79.4215 3.86605 79.667 3.26514C79.9124 2.65999 80.2573 2.13525 80.7017 1.69092C81.146 1.24658 81.6686 0.901693 82.2695 0.65625C82.8747 0.410807 83.5348 0.288086 84.25 0.288086C84.9652 0.288086 85.6253 0.412923 86.2305 0.662598C86.8356 0.90804 87.3582 1.25081 87.7983 1.69092L86.4717 3.01758C86.2051 2.7002 85.8813 2.45264 85.5005 2.2749C85.1196 2.09294 84.7028 2.00195 84.25 2.00195C83.6745 2.00195 83.1624 2.1416 82.7139 2.4209C82.2653 2.7002 81.9119 3.08529 81.6538 3.57617C81.3957 4.06283 81.2666 4.61719 81.2666 5.23926C81.2666 5.86133 81.3957 6.41569 81.6538 6.90234C81.9119 7.389 82.2653 7.77409 82.7139 8.05762C83.1624 8.33691 83.6745 8.47656 84.25 8.47656C84.7028 8.47656 85.1196 8.3877 85.5005 8.20996C85.8813 8.02799 86.2051 7.77832 86.4717 7.46094L87.7983 8.7876ZM90.5664 5.23926C90.5664 4.52409 90.6891 3.86605 90.9346 3.26514C91.18 2.65999 91.5249 2.13525 91.9692 1.69092C92.4136 1.24658 92.9362 0.901693 93.5371 0.65625C94.1423 0.410807 94.8024 0.288086 95.5176 0.288086C96.2327 0.288086 96.8908 0.410807 97.4917 0.65625C98.0968 0.901693 98.6216 1.24658 99.0659 1.69092C99.5103 2.13525 99.8551 2.65999 100.101 3.26514C100.346 3.86605 100.469 4.52409 100.469 5.23926C100.469 5.95443 100.346 6.61458 100.101 7.21973C99.8551 7.82064 99.5103 8.34326 99.0659 8.7876C98.6216 9.23193 98.0968 9.57682 97.4917 9.82227C96.8908 10.0677 96.2327 10.1904 95.5176 10.1904C94.8024 10.1904 94.1423 10.0677 93.5371 9.82227C92.9362 9.57682 92.4136 9.23193 91.9692 8.7876C91.5249 8.34326 91.18 7.82064 90.9346 7.21973C90.6891 6.61458 90.5664 5.95443 90.5664 5.23926ZM92.5342 5.23926C92.5342 5.86133 92.6632 6.41569 92.9214 6.90234C93.1795 7.389 93.5329 7.77409 93.9814 8.05762C94.43 8.33691 94.9421 8.47656 95.5176 8.47656C96.0931 8.47656 96.6051 8.33691 97.0537 8.05762C97.5023 7.77409 97.8556 7.389 98.1138 6.90234C98.3719 6.41569 98.501 5.86133 98.501 5.23926C98.501 4.61719 98.3719 4.06283 98.1138 3.57617C97.8556 3.08529 97.5023 2.7002 97.0537 2.4209C96.6051 2.1416 96.0931 2.00195 95.5176 2.00195C94.9421 2.00195 94.43 2.1416 93.9814 2.4209C93.5329 2.7002 93.1795 3.08529 92.9214 3.57617C92.6632 4.06283 92.5342 4.61719 92.5342 5.23926ZM103.611 10V0.478516H106.138L108.232 4.96631C108.33 5.21175 108.425 5.45931 108.518 5.70898C108.615 5.95443 108.708 6.20199 108.797 6.45166C108.886 6.19352 108.979 5.9375 109.077 5.68359C109.178 5.42969 109.282 5.19059 109.388 4.96631L111.476 0.478516H113.952V10H112.009C112.009 8.84049 112.02 7.7085 112.041 6.604C112.062 5.49951 112.107 4.3929 112.174 3.28418C112.064 3.57617 111.948 3.86605 111.825 4.15381C111.707 4.44157 111.582 4.7251 111.451 5.00439L109.845 8.44482H107.712L106.112 5.01709C105.981 4.69548 105.854 4.38021 105.731 4.07129C105.609 3.75814 105.488 3.44499 105.37 3.13184C105.416 3.86816 105.452 4.58122 105.478 5.271C105.507 5.95654 105.526 6.67806 105.535 7.43555C105.547 8.19303 105.554 9.04785 105.554 10H103.611ZM117.608 10V0.478516H120.896C122.077 0.478516 123 0.759928 123.664 1.32275C124.328 1.88135 124.661 2.64095 124.661 3.60156C124.661 4.24056 124.51 4.79492 124.21 5.26465C123.91 5.73438 123.478 6.09831 122.915 6.35645C122.356 6.61458 121.684 6.74365 120.896 6.74365H119.544V10H117.608ZM120.7 2.09717H119.544V5.13135H120.7C121.351 5.13135 121.847 4.98747 122.185 4.69971C122.524 4.41195 122.693 4.04801 122.693 3.60791C122.693 3.16781 122.524 2.80599 122.185 2.52246C121.847 2.23893 121.351 2.09717 120.7 2.09717ZM126.083 10L129.796 0.478516H131.974L135.687 10H133.611L132.812 7.86719H128.958L128.159 10H126.083ZM132.177 6.15332C131.923 5.40853 131.696 4.74202 131.498 4.15381C131.299 3.56559 131.096 2.95833 130.888 2.33203C130.681 2.95833 130.476 3.56559 130.272 4.15381C130.074 4.74202 129.847 5.40853 129.593 6.15332H132.177ZM138.519 0.478516H140.448L145.336 6.87695V0.478516H147.278V10H145.317L140.423 3.58887V10H138.519V0.478516ZM150.04 0.478516H152.141L154.566 4.45215L156.876 0.478516H159.003L155.575 6.27393V10H153.633V6.27393L150.04 0.478516Z" fill="#FF7E1B"/>
</svg>
